<svg xmlns="http://www.w3.org/2000/svg" version="1.1" xmlns:xlink="http://www.w3.org/1999/xlink" xmlns:svgjs="http://svgjs.dev/svgjs" width="1500" height="1500" viewBox="0 0 1500 1500"><rect width="1500" height="1500" fill="#000000"></rect><g transform="matrix(0.6666666666666666,0,0,0.6666666666666666,249.39393939393943,685.5826739462083)"><svg viewBox="0 0 396 51" data-background-color="#ffffff" preserveAspectRatio="xMidYMid meet" height="193" width="1500" xmlns="http://www.w3.org/2000/svg" xmlns:xlink="http://www.w3.org/1999/xlink"><g id="tight-bounds" transform="matrix(1,0,0,1,0.2400000000000091,0.03329245137337011)"><svg viewBox="0 0 395.52 50.93341509725324" height="50.93341509725324" width="395.52"><g><svg viewBox="0 0 537.7100884865432 69.24406133410669" height="50.93341509725324" width="395.52"><g><rect width="3.588851802049906" height="69.24406133410669" x="129.20633667912708" y="0" fill="#ffffff" opacity="1" stroke-width="0" stroke="transparent" fill-opacity="1" class="rect-qz-0" data-fill-palette-color="primary" rx="1%" id="qz-0" data-palette-color="#2c2c2c"></rect></g><g transform="matrix(1,0,0,1,142.19008848654323,0.17224890879130328)"><svg viewBox="0 0 395.52 68.89956351652408" height="68.89956351652408" width="395.52"><g id="textblocktransform"><svg viewBox="0 0 395.52 68.89956351652408" height="68.89956351652408" width="395.52" id="textblock"><g><svg viewBox="0 0 395.52 39.796082640193184" height="39.796082640193184" width="395.52"><g transform="matrix(1,0,0,1,0,0)"><svg width="395.52" viewBox="4.2 -37.5 372.68 37.5" height="39.796082640193184" data-palette-color="#2c2c2c"><path d="M44.6-22.5L44.6-22.5Q44.6-19.05 42.93-16.23 41.25-13.4 38.4-11.7 35.55-10 32.1-10L32.1-10 12-10 12-14.95 32.1-14.95Q34.2-14.95 35.9-15.98 37.6-17 38.6-18.73 39.6-20.45 39.6-22.5L39.6-22.5Q39.6-24.6 38.6-26.3 37.6-28 35.9-29 34.2-30 32.1-30L32.1-30 9.2-30 9.2 0 4.2 0 4.2-35 32.1-35Q35.55-35 38.4-33.33 41.25-31.65 42.93-28.8 44.6-25.95 44.6-22.5ZM81.4-27.5L81.4 0 62.65 0Q59.8 0 57.32-1.07 54.85-2.15 52.97-4.05 51.1-5.95 50.05-8.43 49-10.9 49-13.75L49-13.75 49-27.5 54-27.5 54-13.75Q54-11.35 55.17-9.38 56.35-7.4 58.3-6.23 60.25-5.05 62.65-5L62.65-5 76.4-5 76.4-27.5 81.4-27.5ZM117.3-8.75L117.3-8.75Q117.3-6.3 116.12-4.33 114.95-2.35 112.97-1.18 111 0 108.55 0L108.55 0 87.3 0 87.3-5 108.55-5Q110.09-5 111.2-6.1 112.3-7.2 112.3-8.75L112.3-8.75Q112.3-10.3 111.2-11.4 110.09-12.5 108.55-12.5L108.55-12.5 94.8-12.5Q92.75-12.5 91.02-13.5 89.3-14.5 88.3-16.23 87.3-17.95 87.3-20L87.3-20Q87.3-22.1 88.3-23.8 89.3-25.5 91.02-26.5 92.75-27.5 94.8-27.5L94.8-27.5 114.8-27.5 114.8-22.5 94.8-22.5Q93.75-22.5 93.02-21.78 92.3-21.05 92.3-20L92.3-20Q92.3-18.95 93.02-18.23 93.75-17.5 94.8-17.5L94.8-17.5 108.55-17.5Q111-17.5 112.97-16.32 114.95-15.15 116.12-13.18 117.3-11.2 117.3-8.75ZM154.84-13.75L154.84 0 149.84 0 149.84-13.75Q149.84-16.15 148.69-18.13 147.54-20.1 145.57-21.3 143.59-22.5 141.19-22.5L141.19-22.5 127.44-22.5 127.44 0 122.44 0 122.44-37.5 127.44-37.5 127.44-27.5 141.19-27.5Q144.04-27.5 146.52-26.43 148.99-25.35 150.87-23.45 152.74-21.55 153.79-19.07 154.84-16.6 154.84-13.75L154.84-13.75ZM181.19-30L181.19 0 176.19 0 176.19-30 158.49-30 158.49-35 198.89-35 198.89-30 181.19-30ZM230.29-27.5L230.29-22.5 211.54-22.5Q209.99-22.5 208.89-21.4 207.79-20.3 207.79-18.75L207.79-18.75 207.79 0 202.79 0 202.79-18.75Q202.79-21.2 203.96-23.18 205.14-25.15 207.14-26.33 209.14-27.5 211.54-27.5L211.54-27.5 230.29-27.5ZM265.63-18.75L265.63 0 240.64 0Q238.24 0 236.24-1.18 234.24-2.35 233.06-4.33 231.89-6.3 231.89-8.75L231.89-8.75Q231.89-11.2 233.06-13.18 234.24-15.15 236.24-16.32 238.24-17.5 240.64-17.5L240.64-17.5 258.13-17.5 258.13-12.5 240.64-12.5Q239.09-12.5 237.99-11.4 236.89-10.3 236.89-8.75L236.89-8.75Q236.89-7.2 237.99-6.1 239.09-5 240.64-5L240.64-5 260.63-5 260.63-18.75Q260.63-20.3 259.54-21.4 258.44-22.5 256.88-22.5L256.88-22.5 236.89-22.5 236.89-27.5 256.88-27.5Q259.34-27.5 261.31-26.33 263.29-25.15 264.46-23.18 265.63-21.2 265.63-18.75L265.63-18.75ZM300.13-37.5L300.13-32.5 286.28-32.5Q283.88-32.5 281.93-31.3 279.98-30.1 278.81-28.13 277.63-26.15 277.63-23.75L277.63-23.75 277.63 0 272.63 0 272.63-25Q272.63-27.65 273.73-29.93 274.83-32.2 276.76-33.88 278.68-35.55 281.13-36.52 283.58-37.5 286.28-37.5L286.28-37.5 300.13-37.5ZM300.13-25L300.13-20 280.13-20 280.13-25 300.13-25ZM332.03-37.5L332.03-32.5 318.18-32.5Q315.78-32.5 313.83-31.3 311.88-30.1 310.7-28.13 309.53-26.15 309.53-23.75L309.53-23.75 309.53 0 304.53 0 304.53-25Q304.53-27.65 305.63-29.93 306.73-32.2 308.66-33.88 310.58-35.55 313.03-36.52 315.48-37.5 318.18-37.5L318.18-37.5 332.03-37.5ZM332.03-25L332.03-20 312.03-20 312.03-25 332.03-25ZM342.68-33.75L342.68-33.75Q342.68-32.2 341.58-31.1 340.48-30 338.93-30L338.93-30Q337.38-30 336.28-31.1 335.18-32.2 335.18-33.75L335.18-33.75Q335.18-35.3 336.28-36.4 337.38-37.5 338.93-37.5L338.93-37.5Q340.48-37.5 341.58-36.4 342.68-35.3 342.68-33.75ZM341.43-27.5L341.43 0 336.43 0 336.43-27.5 341.43-27.5ZM376.88-5L376.88 0 360.52 0Q357.67 0 355.2-1.07 352.72-2.15 350.85-4.05 348.97-5.95 347.92-8.43 346.88-10.9 346.88-13.75L346.88-13.75Q346.88-16.6 347.92-19.07 348.97-21.55 350.85-23.45 352.72-25.35 355.2-26.43 357.67-27.5 360.52-27.5L360.52-27.5 376.88-27.5 376.88-22.5 360.52-22.5Q358.13-22.5 356.17-21.3 354.22-20.1 353.05-18.13 351.88-16.15 351.88-13.75L351.88-13.75Q351.88-11.35 353.05-9.38 354.22-7.4 356.17-6.2 358.13-5 360.52-5L360.52-5 376.88-5Z" opacity="1" transform="matrix(1,0,0,1,0,0)" fill="#ffffff" class="wordmark-text-0" data-fill-palette-color="primary" id="text-0"></path></svg></g></svg></g><g transform="matrix(1,0,0,1,0,49.19098264555943)"><svg viewBox="0 0 232.209792 19.708580870964653" height="19.708580870964653" width="232.209792"><g transform="matrix(1,0,0,1,0,0)"><svg width="232.209792" viewBox="4.3 -35.55 521.9000000000001 44.3" height="19.708580870964653" data-palette-color="#00d1cd"><path d="M17.6 0L4.3 0 4.3-33 16.4-33Q19.15-33 21.43-32.5 23.7-32 25.3-30.98 26.9-29.95 27.78-28.3 28.65-26.65 28.65-24.35L28.65-24.35Q28.65-22.45 27.9-21 27.15-19.55 25.53-18.65 23.9-17.75 21.25-17.25L21.25-17.25 21.25-16.7Q25.85-16.3 27.93-14.2 30-12.1 30-8.7L30-8.7Q30-5.9 28.68-3.98 27.35-2.05 24.63-1.03 21.9 0 17.6 0L17.6 0ZM8.7-15.2L8.7-3.9 18.05-3.9Q21.8-3.9 23.63-5.18 25.45-6.45 25.45-9.1L25.45-9.1Q25.45-12.15 22.93-13.68 20.4-15.2 15.3-15.2L15.3-15.2 8.7-15.2ZM8.7-29.15L8.7-18.6 14.4-18.6Q19.3-18.6 21.7-19.93 24.1-21.25 24.1-23.9L24.1-23.9Q24.1-26.55 22.03-27.85 19.95-29.15 15.75-29.15L15.75-29.15 8.7-29.15ZM41.35 0L36.8 0 36.8-14 36.8-25.85 40.9-25.85 40.5-16.85 41.35-16.85Q41.8-19.8 42.75-21.95 43.7-24.1 45.27-25.3 46.85-26.5 49.2-26.5L49.2-26.5Q49.7-26.5 50.35-26.43 51-26.35 51.85-26.05L51.85-26.05 51.6-21.3Q50.85-21.6 50.1-21.73 49.35-21.85 48.65-21.85L48.65-21.85Q46.7-21.85 45.27-20.6 43.85-19.35 42.9-17.23 41.95-15.1 41.35-12.45L41.35-12.45 41.35 0ZM62.7 0.65L62.7 0.65Q60.6 0.65 58.9-0.18 57.2-1 56.2-2.63 55.2-4.25 55.2-6.75L55.2-6.75Q55.2-8.6 55.87-10 56.55-11.4 57.97-12.4 59.4-13.4 61.65-14.05 63.9-14.7 67.15-15.15L67.15-15.15Q69-15.4 70.17-15.65 71.35-15.9 71.9-16.48 72.45-17.05 72.45-18.2L72.45-18.2Q72.45-20.1 71.15-21.4 69.85-22.7 67.05-22.7L67.05-22.7Q65.6-22.7 64.1-22.2 62.6-21.7 61.47-20.53 60.35-19.35 60.05-17.25L60.05-17.25 55.85-18.65Q56.25-20.45 57.17-21.9 58.1-23.35 59.55-24.38 61-25.4 62.92-25.95 64.85-26.5 67.2-26.5L67.2-26.5Q70.45-26.5 72.62-25.4 74.8-24.3 75.87-22.03 76.95-19.75 76.95-16.2L76.95-16.2 76.95-10.45Q76.95-8.9 77.02-7.08 77.1-5.25 77.25-3.43 77.4-1.6 77.55 0L77.55 0 73.35 0Q73.2-1.6 73.07-3.2 72.95-4.8 72.9-6.4L72.9-6.4 72.25-6.4Q71.5-4.55 70.25-2.95 69-1.35 67.12-0.35 65.25 0.65 62.7 0.65ZM64.05-3.05L64.05-3.05Q65.15-3.05 66.27-3.4 67.4-3.75 68.52-4.55 69.65-5.35 70.67-6.6 71.7-7.85 72.5-9.6L72.5-9.6 72.5-14.6 73.8-14.35Q73-13.55 71.67-13.15 70.35-12.75 68.75-12.5 67.15-12.25 65.55-11.98 63.95-11.7 62.62-11.18 61.3-10.65 60.5-9.7 59.7-8.75 59.7-7.1L59.7-7.1Q59.7-5.1 60.9-4.08 62.1-3.05 64.05-3.05ZM89.14 0L84.59 0 84.59-16.05 84.59-25.85 88.69-25.85 88.24-17.65 89.09-17.65Q89.79-20.7 90.97-22.65 92.14-24.6 93.94-25.55 95.74-26.5 98.14-26.5L98.14-26.5Q102.44-26.5 104.67-23.43 106.89-20.35 106.89-14.25L106.89-14.25 106.89 0 102.29 0 102.29-13.85Q102.29-18.25 100.92-20.35 99.54-22.45 96.89-22.45L96.89-22.45Q94.49-22.45 92.82-20.95 91.14-19.45 90.19-17 89.24-14.55 89.14-11.7L89.14-11.7 89.14 0ZM123.49 0.65L123.49 0.65Q120.19 0.65 117.84-1.1 115.49-2.85 114.27-5.9 113.04-8.95 113.04-12.9L113.04-12.9Q113.04-16.85 114.24-19.9 115.44-22.95 117.74-24.7 120.04-26.45 123.39-26.45L123.39-26.45Q126.14-26.45 127.89-25.3 129.64-24.15 130.72-22.33 131.79-20.5 132.29-18.35L132.29-18.35 133.19-18.35Q132.94-19.8 132.74-21.38 132.54-22.95 132.39-24.48 132.24-26 132.24-27.2L132.24-27.2 132.24-35 136.84-35 136.84-12.75 136.84 0 132.74 0 132.99-7 132.19-7Q131.59-4.75 130.49-3.03 129.39-1.3 127.69-0.33 125.99 0.65 123.49 0.65ZM124.54-3.35L124.54-3.35Q126.34-3.35 127.79-4.2 129.24-5.05 130.24-6.43 131.24-7.8 131.77-9.4 132.29-11 132.29-12.5L132.29-12.5 132.29-13.1Q132.29-14.15 131.99-15.38 131.69-16.6 131.12-17.85 130.54-19.1 129.62-20.18 128.69-21.25 127.44-21.88 126.19-22.5 124.64-22.5L124.64-22.5Q122.39-22.5 120.87-21.23 119.34-19.95 118.57-17.75 117.79-15.55 117.79-12.8L117.79-12.8Q117.79-9.95 118.59-7.83 119.39-5.7 120.92-4.53 122.44-3.35 124.54-3.35ZM149.34 0L144.79 0 144.79-25.85 149.34-25.85 149.34 0ZM147.09-30.35L147.09-30.35Q145.49-30.35 144.69-31 143.89-31.65 143.89-32.95L143.89-32.95Q143.89-34.25 144.69-34.9 145.49-35.55 147.04-35.55L147.04-35.55Q148.64-35.55 149.44-34.9 150.24-34.25 150.24-32.95L150.24-32.95Q150.24-31.7 149.44-31.03 148.64-30.35 147.09-30.35ZM161.79 0L157.24 0 157.24-16.05 157.24-25.85 161.34-25.85 160.89-17.65 161.74-17.65Q162.44-20.7 163.61-22.65 164.79-24.6 166.59-25.55 168.39-26.5 170.79-26.5L170.79-26.5Q175.09-26.5 177.31-23.43 179.54-20.35 179.54-14.25L179.54-14.25 179.54 0 174.94 0 174.94-13.85Q174.94-18.25 173.56-20.35 172.19-22.45 169.54-22.45L169.54-22.45Q167.14-22.45 165.46-20.95 163.79-19.45 162.84-17 161.89-14.55 161.79-11.7L161.79-11.7 161.79 0ZM196.68 8.75L196.68 8.75Q192.58 8.75 189.96 8.13 187.33 7.5 186.08 6.23 184.83 4.95 184.83 3.05L184.83 3.05Q184.83 0.75 186.63-0.75 188.43-2.25 192.08-2.75L192.08-2.75 192.08-3.65Q189.43-3.65 188.08-4.3 186.73-4.95 186.73-6.25L186.73-6.25Q186.73-7.6 188.08-8.53 189.43-9.45 192.48-10.25L192.48-10.25 192.48-11.2Q189.43-11.25 187.83-13.03 186.23-14.8 186.23-17.65L186.23-17.65Q186.23-20.2 187.61-22.08 188.98-23.95 191.61-24.98 194.23-26 197.88-26L197.88-26 210.08-26 210.08-22.15 202.08-23.4 202.08-22.45Q204.98-21.85 206.53-20.43 208.08-19 208.08-16.6L208.08-16.6Q208.08-14.45 206.83-12.85 205.58-11.25 203.16-10.38 200.73-9.5 197.18-9.5L197.18-9.5Q196.48-9.5 195.71-9.58 194.93-9.65 193.68-9.85L193.68-9.85Q192.33-9 191.51-8.3 190.68-7.6 190.68-7.05L190.68-7.05Q190.68-6.5 191.46-6.18 192.23-5.85 193.33-5.75 194.43-5.65 195.38-5.65L195.38-5.65 201.23-5.65Q202.23-5.65 203.76-5.45 205.28-5.25 206.81-4.6 208.33-3.95 209.38-2.6 210.43-1.25 210.43 1.15L210.43 1.15Q210.43 3.85 208.83 5.55 207.23 7.25 204.18 8 201.13 8.75 196.68 8.75ZM196.78 5L196.78 5Q200.08 5 202.18 4.58 204.28 4.15 205.26 3.25 206.23 2.35 206.23 0.95L206.23 0.95Q206.23-0.35 205.56-1.07 204.88-1.8 203.88-2.1 202.88-2.4 201.88-2.48 200.88-2.55 200.18-2.55L200.18-2.55 194.33-2.55Q191.43-1.9 190.33-0.75 189.23 0.4 189.23 1.7L189.23 1.7Q189.23 3.1 190.23 3.8 191.23 4.5 192.96 4.75 194.68 5 196.78 5ZM197.38-12.45L197.38-12.45Q200.53-12.45 202.13-13.75 203.73-15.05 203.73-17.25L203.73-17.25Q203.73-19.6 202.11-21.13 200.48-22.65 197.23-22.65L197.23-22.65Q194.08-22.65 192.41-21.2 190.73-19.75 190.73-17.45L190.73-17.45Q190.73-15.95 191.51-14.83 192.28-13.7 193.76-13.08 195.23-12.45 197.38-12.45ZM239.78-11.2L226.48-11.2 226.48-15.4 239.78-15.4 239.78-11.2ZM260.52 0L255.57 0 267.17-33 273.87-33 285.47 0 280.52 0 270.82-29.15 270.22-29.15 260.52 0ZM280.52-7.4L261.07-7.4 261.07-10.9 280.52-10.9 280.52-7.4ZM304.27 0.65L304.27 0.65Q301.77 0.65 300-0.35 298.22-1.35 297.15-3.08 296.07-4.8 295.52-7L295.52-7 294.72-7 294.97 0 290.87 0 290.87-12.75 290.87-35 295.47-35 295.47-26.9Q295.47-25.6 295.35-24.18 295.22-22.75 295-21.25 294.77-19.75 294.52-18.35L294.52-18.35 295.42-18.35Q295.97-20.45 297.02-22.3 298.07-24.15 299.85-25.3 301.62-26.45 304.27-26.45L304.27-26.45Q307.57-26.45 309.9-24.73 312.22-23 313.47-19.95 314.72-16.9 314.72-12.85L314.72-12.85Q314.72-8.95 313.5-5.9 312.27-2.85 309.95-1.1 307.62 0.65 304.27 0.65ZM303.17-3.35L303.17-3.35Q305.32-3.35 306.82-4.5 308.32-5.65 309.15-7.8 309.97-9.95 309.97-12.8L309.97-12.8Q309.97-15.6 309.17-17.78 308.37-19.95 306.87-21.23 305.37-22.5 303.17-22.5L303.17-22.5Q301.57-22.5 300.32-21.88 299.07-21.25 298.15-20.2 297.22-19.15 296.62-17.9 296.02-16.65 295.72-15.4 295.42-14.15 295.42-13.1L295.42-13.1 295.42-12.5Q295.42-11 295.95-9.4 296.47-7.8 297.47-6.43 298.47-5.05 299.92-4.2 301.37-3.35 303.17-3.35ZM332.37 0.65L332.37 0.65Q329.32 0.65 326.99-0.28 324.67-1.2 323.07-2.95 321.47-4.7 320.67-7.1 319.87-9.5 319.87-12.5L319.87-12.5Q319.87-15.55 320.67-18.1 321.47-20.65 323.02-22.55 324.57-24.45 326.82-25.48 329.07-26.5 331.97-26.5L331.97-26.5Q334.52-26.5 336.62-25.65 338.72-24.8 340.19-23.03 341.67-21.25 342.42-18.57 343.17-15.9 343.02-12.3L343.02-12.3 322.72-12.15 322.72-15.25 340.27-15.4 338.72-13.3Q338.97-16.45 338.12-18.5 337.27-20.55 335.69-21.6 334.12-22.65 331.97-22.65L331.97-22.65Q329.67-22.65 327.92-21.45 326.17-20.25 325.24-18 324.32-15.75 324.32-12.55L324.32-12.55Q324.32-7.95 326.37-5.53 328.42-3.1 332.42-3.1L332.42-3.1Q334.02-3.1 335.19-3.48 336.37-3.85 337.19-4.53 338.02-5.2 338.54-6.1 339.07-7 339.37-8.05L339.37-8.05 343.37-7.1Q342.92-5.3 341.99-3.88 341.07-2.45 339.69-1.45 338.32-0.45 336.52 0.1 334.72 0.65 332.37 0.65ZM354.02 0L349.47 0 349.47-14 349.47-25.85 353.57-25.85 353.17-16.85 354.02-16.85Q354.47-19.8 355.42-21.95 356.37-24.1 357.94-25.3 359.52-26.5 361.87-26.5L361.87-26.5Q362.37-26.5 363.02-26.43 363.67-26.35 364.52-26.05L364.52-26.05 364.27-21.3Q363.52-21.6 362.77-21.73 362.02-21.85 361.32-21.85L361.32-21.85Q359.37-21.85 357.94-20.6 356.52-19.35 355.57-17.23 354.62-15.1 354.02-12.45L354.02-12.45 354.02 0ZM386.61 0L382.06 0 382.06-14 382.06-25.85 386.16-25.85 385.76-16.85 386.61-16.85Q387.06-19.8 388.01-21.95 388.96-24.1 390.54-25.3 392.11-26.5 394.46-26.5L394.46-26.5Q394.96-26.5 395.61-26.43 396.26-26.35 397.11-26.05L397.11-26.05 396.86-21.3Q396.11-21.6 395.36-21.73 394.61-21.85 393.91-21.85L393.91-21.85Q391.96-21.85 390.54-20.6 389.11-19.35 388.16-17.23 387.21-15.1 386.61-12.45L386.61-12.45 386.61 0ZM406.61 0L402.06 0 402.06-25.85 406.61-25.85 406.61 0ZM404.36-30.35L404.36-30.35Q402.76-30.35 401.96-31 401.16-31.65 401.16-32.95L401.16-32.95Q401.16-34.25 401.96-34.9 402.76-35.55 404.31-35.55L404.31-35.55Q405.91-35.55 406.71-34.9 407.51-34.25 407.51-32.95L407.51-32.95Q407.51-31.7 406.71-31.03 405.91-30.35 404.36-30.35ZM425.61 0.65L425.61 0.65Q422.2 0.65 419.83-0.45 417.45-1.55 415.98-3.4 414.5-5.25 413.83-7.65 413.16-10.05 413.16-12.65L413.16-12.65Q413.16-15.5 413.91-18 414.66-20.5 416.18-22.43 417.7-24.35 419.98-25.43 422.25-26.5 425.31-26.5L425.31-26.5Q428.25-26.5 430.5-25.48 432.75-24.45 434.18-22.6 435.61-20.75 436-18.2L436-18.2 431.66-17Q431.56-18.4 430.83-19.7 430.11-21 428.7-21.83 427.31-22.65 425.25-22.65L425.25-22.65Q423.31-22.65 421.93-21.9 420.56-21.15 419.63-19.8 418.7-18.45 418.23-16.65 417.75-14.85 417.75-12.75L417.75-12.75Q417.75-9.85 418.58-7.7 419.41-5.55 421.16-4.35 422.91-3.15 425.61-3.15L425.61-3.15Q427.7-3.15 429.16-3.88 430.61-4.6 431.45-5.93 432.31-7.25 432.56-9.05L432.56-9.05 436.75-8.1Q436.41-5.95 435.45-4.3 434.5-2.65 433.06-1.58 431.61-0.5 429.73 0.08 427.86 0.65 425.61 0.65ZM446.5 0L441.95 0 441.95-15.7 441.95-35 446.65-35 446.65-26.95Q446.65-25.85 446.58-24.73 446.5-23.6 446.38-22.45 446.25-21.3 446.1-20.13 445.95-18.95 445.75-17.75L445.75-17.75 446.6-17.75Q447.35-20.7 448.5-22.63 449.65-24.55 451.38-25.53 453.1-26.5 455.5-26.5L455.5-26.5Q459.9-26.5 462.08-23.43 464.25-20.35 464.25-14.25L464.25-14.25 464.25 0 459.65 0 459.65-13.8Q459.65-18.3 458.28-20.38 456.9-22.45 454.15-22.45L454.15-22.45Q451.85-22.45 450.25-21.1 448.65-19.75 447.73-17.45 446.8-15.15 446.5-12.2L446.5-12.2 446.5 0ZM479.8 0.5L479.8 0.5Q476.2 0.5 474.45-1.45 472.7-3.4 472.7-7.4L472.7-7.4 472.7-22.05 468.8-22.05 468.85-25.85 471.3-25.85Q472.55-25.85 473.13-26.3 473.7-26.75 473.8-27.8L473.8-27.8 474.3-31.7 477.1-31.7 477.1-25.85 484.55-25.85 484.55-22 477.1-22 477.1-7.5Q477.1-5.5 478.03-4.63 478.95-3.75 480.7-3.75L480.7-3.75Q481.65-3.75 482.68-4 483.7-4.25 484.7-5L484.7-5 484.7-0.45Q483.25 0.1 482.03 0.3 480.8 0.5 479.8 0.5ZM494.9 0L490.35 0 490.35-25.85 494.9-25.85 494.9 0ZM492.65-30.35L492.65-30.35Q491.05-30.35 490.25-31 489.45-31.65 489.45-32.95L489.45-32.95Q489.45-34.25 490.25-34.9 491.05-35.55 492.6-35.55L492.6-35.55Q494.2-35.55 495-34.9 495.8-34.25 495.8-32.95L495.8-32.95Q495.8-31.7 495-31.03 494.2-30.35 492.65-30.35ZM512.45 8.75L512.45 8.75Q508.35 8.75 505.72 8.13 503.1 7.5 501.85 6.23 500.6 4.95 500.6 3.05L500.6 3.05Q500.6 0.75 502.4-0.75 504.2-2.25 507.85-2.75L507.85-2.75 507.85-3.65Q505.2-3.65 503.85-4.3 502.5-4.95 502.5-6.25L502.5-6.25Q502.5-7.6 503.85-8.53 505.2-9.45 508.25-10.25L508.25-10.25 508.25-11.2Q505.2-11.25 503.6-13.03 502-14.8 502-17.65L502-17.65Q502-20.2 503.37-22.08 504.75-23.95 507.37-24.98 510-26 513.64-26L513.64-26 525.85-26 525.85-22.15 517.85-23.4 517.85-22.45Q520.75-21.85 522.3-20.43 523.85-19 523.85-16.6L523.85-16.6Q523.85-14.45 522.6-12.85 521.35-11.25 518.92-10.38 516.5-9.5 512.95-9.5L512.95-9.5Q512.25-9.5 511.47-9.58 510.7-9.65 509.45-9.85L509.45-9.85Q508.1-9 507.27-8.3 506.45-7.6 506.45-7.05L506.45-7.05Q506.45-6.5 507.22-6.18 508-5.85 509.1-5.75 510.2-5.65 511.15-5.65L511.15-5.65 517-5.65Q518-5.65 519.52-5.45 521.05-5.25 522.57-4.6 524.1-3.95 525.14-2.6 526.2-1.25 526.2 1.15L526.2 1.15Q526.2 3.85 524.6 5.55 523 7.25 519.95 8 516.89 8.75 512.45 8.75ZM512.55 5L512.55 5Q515.85 5 517.95 4.58 520.05 4.15 521.02 3.25 522 2.35 522 0.95L522 0.95Q522-0.35 521.32-1.07 520.64-1.8 519.64-2.1 518.64-2.4 517.64-2.48 516.64-2.55 515.95-2.55L515.95-2.55 510.1-2.55Q507.2-1.9 506.1-0.75 505 0.4 505 1.7L505 1.7Q505 3.1 506 3.8 507 4.5 508.72 4.75 510.45 5 512.55 5ZM513.14-12.45L513.14-12.45Q516.3-12.45 517.89-13.75 519.5-15.05 519.5-17.25L519.5-17.25Q519.5-19.6 517.87-21.13 516.25-22.65 513-22.65L513-22.65Q509.85-22.65 508.17-21.2 506.5-19.75 506.5-17.45L506.5-17.45Q506.5-15.95 507.27-14.83 508.05-13.7 509.52-13.08 511-12.45 513.14-12.45Z" opacity="1" transform="matrix(1,0,0,1,0,0)" fill="#ffffff" class="slogan-text-1" data-fill-palette-color="secondary" id="text-1"></path></svg></g></svg></g></svg></g></svg></g><g transform="matrix(1,0,0,1,0,0.17224890879130328)"><svg viewBox="0 0 119.81143667376084 68.89956351652408" height="68.89956351652408" width="119.81143667376084"><g><svg xmlns="http://www.w3.org/2000/svg" xmlns:xlink="http://www.w3.org/1999/xlink" version="1.1" x="0" y="0" viewBox="0.5 3.687 15 8.626000000000003" enable-background="new 0 0 16 16" xml:space="preserve" height="68.89956351652408" width="119.81143667376084" class="icon-icon-0" data-fill-palette-color="accent" id="icon-0"><path d="M14.562 3.687c-0.519 0-0.938 0.42-0.938 0.938 0 0.083 0.027 0.159 0.048 0.236l-3.279 3.594c-0.068-0.016-0.132-0.042-0.205-0.042-0.207 0-0.388 0.08-0.542 0.193L6.728 7.208c-0.06-0.46-0.438-0.821-0.915-0.821-0.518 0-0.938 0.42-0.938 0.938 0 0.056 0.022 0.104 0.032 0.157l-3.242 3.001c-0.075-0.02-0.146-0.046-0.227-0.046-0.518 0-0.938 0.42-0.938 0.938s0.42 0.938 0.938 0.938 0.938-0.42 0.938-0.938c0-0.056-0.022-0.104-0.032-0.157l3.241-3C5.66 8.236 5.732 8.263 5.813 8.263c0.18 0 0.339-0.064 0.482-0.153L9.29 9.545c0.093 0.421 0.449 0.742 0.897 0.742 0.518 0 0.938-0.42 0.938-0.938 0-0.062-0.023-0.117-0.035-0.176l3.322-3.641c0.051 0.008 0.097 0.03 0.15 0.03 0.518 0 0.938-0.42 0.938-0.938S15.08 3.687 14.562 3.687z" fill="#ffffff" data-fill-palette-color="accent"></path></svg></g></svg></g></svg></g><defs></defs></svg><rect width="395.52" height="50.93341509725324" fill="none" stroke="none" visibility="hidden"></rect></g></svg></g></svg>